<?xml version="1.0" encoding="UTF-8" standalone="no"?>
<!DOCTYPE svg PUBLIC "-//W3C//DTD SVG 1.1//EN"
 "http://www.w3.org/Graphics/SVG/1.1/DTD/svg11.dtd">
<!-- Generated by graphviz version 2.40.1 (20161225.0304)
 -->
<!-- Title: dependencies Pages: 1 -->
<svg width="1537pt" height="211pt"
 viewBox="0.00 0.00 1537.00 211.00" xmlns="http://www.w3.org/2000/svg" xmlns:xlink="http://www.w3.org/1999/xlink">
<g id="graph0" class="graph" transform="scale(1 1) rotate(0) translate(4 207)">
<title>dependencies</title>
<polygon fill="#ffffff" stroke="transparent" points="-4,4 -4,-207 1533,-207 1533,4 -4,4"/>
<text text-anchor="start" x="743.5091" y="-42.4" font-family="sans-serif" font-weight="bold" font-size="14.00" fill="#000000">Legend</text>
<polygon fill="#ffffb3" stroke="transparent" points="530.5,-10 530.5,-30 550.5,-30 550.5,-10 530.5,-10"/>
<text text-anchor="start" x="554.129" y="-15.4" font-family="sans-serif" font-size="14.00" fill="#000000"> &#160;Declarations</text>
<polygon fill="#8dd3c7" stroke="transparent" points="643.5,-10 643.5,-30 663.5,-30 663.5,-10 643.5,-10"/>
<text text-anchor="start" x="667.2251" y="-15.4" font-family="sans-serif" font-size="14.00" fill="#000000"> &#160;Module</text>
<polygon fill="#80b1d3" stroke="transparent" points="729.5,-10 729.5,-30 749.5,-30 749.5,-10 729.5,-10"/>
<text text-anchor="start" x="753.2812" y="-15.4" font-family="sans-serif" font-size="14.00" fill="#000000"> &#160;Bootstrap</text>
<polygon fill="#fdb462" stroke="transparent" points="826.5,-10 826.5,-30 846.5,-30 846.5,-10 826.5,-10"/>
<text text-anchor="start" x="850.1732" y="-15.4" font-family="sans-serif" font-size="14.00" fill="#000000"> &#160;Providers</text>
<polygon fill="#fb8072" stroke="transparent" points="922.5,-10 922.5,-30 942.5,-30 942.5,-10 922.5,-10"/>
<text text-anchor="start" x="946.2258" y="-15.4" font-family="sans-serif" font-size="14.00" fill="#000000"> &#160;Exports</text>
<g id="clust1" class="cluster">
<title>cluster_AppModule</title>
<polygon fill="none" stroke="#000000" stroke-dasharray="1,5" points="8,-70 8,-195 1521,-195 1521,-70 8,-70"/>
</g>
<g id="clust2" class="cluster">
<title>cluster_AppModule_declarations</title>
<polygon fill="none" stroke="#000000" points="558,-78 558,-130 1513,-130 1513,-78 558,-78"/>
</g>
<g id="clust9" class="cluster">
<title>cluster_AppModule_imports</title>
<polygon fill="none" stroke="#000000" points="406,-78 406,-130 550,-130 550,-78 406,-78"/>
</g>
<g id="clust12" class="cluster">
<title>cluster_AppModule_providers</title>
<polygon fill="none" stroke="#000000" points="16,-78 16,-130 398,-130 398,-78 16,-78"/>
</g>
<!-- CounterComponent -->
<g id="node1" class="node">
<title>CounterComponent</title>
<polygon fill="#ffffb3" stroke="#000000" points="1505.4356,-122 1378.5644,-122 1378.5644,-86 1505.4356,-86 1505.4356,-122"/>
<text text-anchor="middle" x="1442" y="-99.8" font-family="Times,serif" font-size="14.00" fill="#000000">CounterComponent</text>
</g>
<!-- AppModule -->
<g id="node7" class="node">
<title>AppModule</title>
<polygon fill="#8dd3c7" stroke="#000000" points="807.6571,-187 804.6571,-191 783.6571,-191 780.6571,-187 724.3429,-187 724.3429,-151 807.6571,-151 807.6571,-187"/>
<text text-anchor="middle" x="766" y="-164.8" font-family="Times,serif" font-size="14.00" fill="#000000">AppModule</text>
</g>
<!-- CounterComponent&#45;&gt;AppModule -->
<g id="edge1" class="edge">
<title>CounterComponent&#45;&gt;AppModule</title>
<path fill="none" stroke="#000000" d="M1442,-122.0109C1442,-144.4852 1442,-180 1442,-180 1442,-180 817.7767,-180 817.7767,-180"/>
<polygon fill="#000000" stroke="#000000" points="817.7767,-176.5001 807.7767,-180 817.7766,-183.5001 817.7767,-176.5001"/>
</g>
<!-- LoadScriptDirectiveDirective -->
<g id="node2" class="node">
<title>LoadScriptDirectiveDirective</title>
<polygon fill="#ffffb3" stroke="#000000" points="1361.3722,-122 1178.6278,-122 1178.6278,-86 1361.3722,-86 1361.3722,-122"/>
<text text-anchor="middle" x="1270" y="-99.8" font-family="Times,serif" font-size="14.00" fill="#000000">LoadScriptDirectiveDirective</text>
</g>
<!-- LoadScriptDirectiveDirective&#45;&gt;AppModule -->
<g id="edge2" class="edge">
<title>LoadScriptDirectiveDirective&#45;&gt;AppModule</title>
<path fill="none" stroke="#000000" d="M1270,-122.1289C1270,-142.5724 1270,-173 1270,-173 1270,-173 817.6732,-173 817.6732,-173"/>
<polygon fill="#000000" stroke="#000000" points="817.6733,-169.5001 807.6732,-173 817.6732,-176.5001 817.6733,-169.5001"/>
</g>
<!-- MainSiteComponent -->
<g id="node3" class="node">
<title>MainSiteComponent</title>
<polygon fill="#ffffb3" stroke="#000000" points="1160.161,-122 1027.839,-122 1027.839,-86 1160.161,-86 1160.161,-122"/>
<text text-anchor="middle" x="1094" y="-99.8" font-family="Times,serif" font-size="14.00" fill="#000000">MainSiteComponent</text>
</g>
<!-- MainSiteComponent&#45;&gt;AppModule -->
<g id="edge3" class="edge">
<title>MainSiteComponent&#45;&gt;AppModule</title>
<path fill="none" stroke="#000000" d="M1094,-122.2667C1094,-140.5552 1094,-166 1094,-166 1094,-166 817.8746,-166 817.8746,-166"/>
<polygon fill="#000000" stroke="#000000" points="817.8746,-162.5001 807.8746,-166 817.8746,-169.5001 817.8746,-162.5001"/>
</g>
<!-- ShowLightsComponent -->
<g id="node4" class="node">
<title>ShowLightsComponent</title>
<polygon fill="#ffffb3" stroke="#000000" points="1009.5,-122 860.5,-122 860.5,-86 1009.5,-86 1009.5,-122"/>
<text text-anchor="middle" x="935" y="-99.8" font-family="Times,serif" font-size="14.00" fill="#000000">ShowLightsComponent</text>
</g>
<!-- ShowLightsComponent&#45;&gt;AppModule -->
<g id="edge4" class="edge">
<title>ShowLightsComponent&#45;&gt;AppModule</title>
<path fill="none" stroke="#000000" d="M935,-122.0091C935,-138.0494 935,-159 935,-159 935,-159 817.7753,-159 817.7753,-159"/>
<polygon fill="#000000" stroke="#000000" points="817.7753,-155.5001 807.7753,-159 817.7753,-162.5001 817.7753,-155.5001"/>
</g>
<!-- ShowRoomsComponent -->
<g id="node5" class="node">
<title>ShowRoomsComponent</title>
<polygon fill="#ffffb3" stroke="#000000" points="842.3934,-122 689.6066,-122 689.6066,-86 842.3934,-86 842.3934,-122"/>
<text text-anchor="middle" x="766" y="-99.8" font-family="Times,serif" font-size="14.00" fill="#000000">ShowRoomsComponent</text>
</g>
<!-- ShowRoomsComponent&#45;&gt;AppModule -->
<g id="edge5" class="edge">
<title>ShowRoomsComponent&#45;&gt;AppModule</title>
<path fill="none" stroke="#000000" d="M766,-122.1061C766,-122.1061 766,-140.991 766,-140.991"/>
<polygon fill="#000000" stroke="#000000" points="762.5001,-140.9909 766,-150.991 769.5001,-140.991 762.5001,-140.9909"/>
</g>
<!-- TestComponent -->
<g id="node6" class="node">
<title>TestComponent</title>
<polygon fill="#ffffb3" stroke="#000000" points="671.9357,-122 566.0643,-122 566.0643,-86 671.9357,-86 671.9357,-122"/>
<text text-anchor="middle" x="619" y="-99.8" font-family="Times,serif" font-size="14.00" fill="#000000">TestComponent</text>
</g>
<!-- TestComponent&#45;&gt;AppModule -->
<g id="edge6" class="edge">
<title>TestComponent&#45;&gt;AppModule</title>
<path fill="none" stroke="#000000" d="M619,-122.0091C619,-138.0494 619,-159 619,-159 619,-159 714.2689,-159 714.2689,-159"/>
<polygon fill="#000000" stroke="#000000" points="714.2689,-162.5001 724.2689,-159 714.2689,-155.5001 714.2689,-162.5001"/>
</g>
<!-- AppRoutingModule -->
<g id="node8" class="node">
<title>AppRoutingModule</title>
<polygon fill="#8dd3c7" stroke="#000000" points="542.2744,-122 539.2744,-126 518.2744,-126 515.2744,-122 413.7256,-122 413.7256,-86 542.2744,-86 542.2744,-122"/>
<text text-anchor="middle" x="478" y="-99.8" font-family="Times,serif" font-size="14.00" fill="#000000">AppRoutingModule</text>
</g>
<!-- AppRoutingModule&#45;&gt;AppModule -->
<g id="edge7" class="edge">
<title>AppRoutingModule&#45;&gt;AppModule</title>
<path fill="none" stroke="#000000" d="M478,-122.2667C478,-140.5552 478,-166 478,-166 478,-166 714.1223,-166 714.1223,-166"/>
<polygon fill="#000000" stroke="#000000" points="714.1224,-169.5001 724.1223,-166 714.1223,-162.5001 714.1224,-169.5001"/>
</g>
<!-- IobrokerService -->
<g id="node9" class="node">
<title>IobrokerService</title>
<ellipse fill="#fdb462" stroke="#000000" cx="317" cy="-104" rx="73.4745" ry="18"/>
<text text-anchor="middle" x="317" y="-99.8" font-family="Times,serif" font-size="14.00" fill="#000000">IobrokerService</text>
</g>
<!-- IobrokerService&#45;&gt;AppModule -->
<g id="edge8" class="edge">
<title>IobrokerService&#45;&gt;AppModule</title>
<path fill="none" stroke="#000000" d="M317,-122.1289C317,-142.5724 317,-173 317,-173 317,-173 714.1624,-173 714.1624,-173"/>
<polygon fill="#000000" stroke="#000000" points="714.1624,-176.5001 724.1624,-173 714.1623,-169.5001 714.1624,-176.5001"/>
</g>
<!-- SelectorServiceService -->
<g id="node10" class="node">
<title>SelectorServiceService</title>
<ellipse fill="#fdb462" stroke="#000000" cx="125" cy="-104" rx="100.6727" ry="18"/>
<text text-anchor="middle" x="125" y="-99.8" font-family="Times,serif" font-size="14.00" fill="#000000">SelectorServiceService</text>
</g>
<!-- SelectorServiceService&#45;&gt;AppModule -->
<g id="edge9" class="edge">
<title>SelectorServiceService&#45;&gt;AppModule</title>
<path fill="none" stroke="#000000" d="M125,-122.0109C125,-144.4852 125,-180 125,-180 125,-180 713.9422,-180 713.9422,-180"/>
<polygon fill="#000000" stroke="#000000" points="713.9422,-183.5001 723.9422,-180 713.9422,-176.5001 713.9422,-183.5001"/>
</g>
</g>
</svg>
